<svg width="24" height="24" viewBox="0 0 24 24" fill="none" xmlns="http://www.w3.org/2000/svg">
<path d="M20.8387 13.1988C21.1812 12.6188 21.375 12 21.375 11.252C21.375 9.53262 19.9212 7.90898 18.0227 7.90898H16.5977C16.7898 7.40859 16.9434 6.81016 16.9434 6.09102C16.9434 3.2475 15.4711 2 13.2219 2C10.8154 2 10.9526 5.70832 10.4188 6.24219C9.5302 7.13074 8.48066 8.83777 7.73281 9.5H3.875C3.18465 9.5 2.625 10.0596 2.625 10.75V20.125C2.625 20.8154 3.18465 21.375 3.875 21.375H6.375C6.95676 21.375 7.44562 20.9776 7.58508 20.4395C9.32371 20.4786 10.5171 21.9996 14.5305 21.9996C14.8125 21.9996 15.125 22 15.3984 22C18.4108 22 19.7729 20.46 19.8102 18.2762C20.3304 17.5564 20.6031 16.5917 20.4875 15.6594C20.8724 14.9386 21.0212 14.0835 20.8387 13.1988ZM18.4266 15.3016C18.9172 16.127 18.4758 17.2316 17.882 17.5504C18.1828 19.4559 17.1942 20.1246 15.807 20.1246H14.3297C11.5313 20.1246 9.71918 18.6473 7.625 18.6473V11.375H8.05156C9.15937 11.375 10.707 8.60586 11.7445 7.56797C12.8523 6.46016 12.4832 4.61367 13.2219 3.875C15.0684 3.875 15.0684 5.16328 15.0684 6.09102C15.0684 7.62109 13.9605 8.30664 13.9605 9.78398H18.0227C18.8473 9.78398 19.4965 10.5227 19.5 11.2613C19.5035 11.9996 18.9992 12.7383 18.6301 12.7383C19.157 13.3068 19.2696 14.5053 18.4266 15.3016V15.3016ZM6.0625 18.875C6.0625 19.3928 5.64277 19.8125 5.125 19.8125C4.60723 19.8125 4.1875 19.3928 4.1875 18.875C4.1875 18.3572 4.60723 17.9375 5.125 17.9375C5.64277 17.9375 6.0625 18.3572 6.0625 18.875Z" fill="#434D5A"/>
</svg>
